# xmcd
#
# Track frame offsets:
#	150
#	17397
#	27538
#	41905
#	61067
#	79846
#	97361
#	120502
#	144880
#	163645
#	186239
#	204291
#	217292
#	238867
#	261635
#	284646
#
# Disc length: 4766 seconds
#
# Revision: 0
# Processed by: cddbd v1.5.2PL0 Copyright (c) Steve Scherf et al.
# Submitted via: dBpowerAMP V4.0
#
DISCID=f5129c10
DTITLE=Various Artist - Indian Rezervation Blues And More - [CD3]
DYEAR=2009
DGENRE=Blues
TTITLE0=M'Girl - Kitaskinanaw
TTITLE1=Cochise Anderson . Kokopelli's Groove
TTITLE2=Keith Scola - Kokopelli Blues
TTITLE3=Jim Boyd - Inchelium
TTITLE4=George Leach - Indian Blues
TTITLE5=Derek Miller - Devil Come Down Sunday
TTITLE6=Cary Morin - Live A Little 
TTITLE7=Pure Fe' - Stand Up For Human Pride
TTITLE8=Charly Lowry - Brownskin
TTITLE9=Joy Harjo - Witchi Tai To
TTITLE10=Jason Burnstick Band - Ain't Goin ' Down
TTITLE11=Jim Boyd - Rebel Moon
TTITLE12=The Plateros - Lord of All
TTITLE13=Gary Farmer and the Troublemakers - Stripped Me Naked
TTITLE14=M'Girl - Healing Song
TTITLE15=DATA
EXTD=
EXTT0=
EXTT1=
EXTT2=
EXTT3=
EXTT4=
EXTT5=
EXTT6=
EXTT7=
EXTT8=
EXTT9=
EXTT10=
EXTT11=
EXTT12=
EXTT13=
EXTT14=
EXTT15=
PLAYORDER=
